mtllib crate.mtl
o Crate
v -1.000000 -1.000000 1.000000
v -1.000000 1.000000 1.000000
v -1.000000 -1.000000 -1.000000
v -1.000000 1.000000 -1.000000
v 1.000000 -1.000000 1.000000
v 1.000000 1.000000 1.000000
v 1.000000 -1.000000 -1.000000
v 1.000000 1.000000 -1.000000
v -1.000000 -0.697393 0.697393
v -1.000000 0.697393 0.697393
v -1.000000 0.697393 -0.697393
v -1.000000 -0.697393 -0.697393
v -0.697393 -0.697393 -1.000000
v -0.697393 0.697393 -1.000000
v 0.697393 0.697393 -1.000000
v 0.697393 -0.697393 -1.000000
v 1.000000 -0.697393 -0.697393
v 1.000000 0.697393 -0.697393
v 1.000000 0.697393 0.697393
v 1.000000 -0.697393 0.697393
v 0.697393 -0.697393 1.000000
v 0.697393 0.697393 1.000000
v -0.697393 0.697393 1.000000
v -0.697393 -0.697393 1.000000
v -0.697393 -1.000000 -0.697393
v 0.697393 -1.000000 -0.697393
v 0.697393 -1.000000 0.697393
v -0.697393 -1.000000 0.697393
v 0.697393 1.000000 -0.697393
v -0.697393 1.000000 -0.697393
v -0.697393 1.000000 0.697393
v 0.697393 1.000000 0.697393
v -0.878464 -0.697393 0.697393
v -0.878464 0.697393 0.697393
v -0.878464 -0.697393 -0.697393
v -0.878464 0.697393 -0.697393
v -0.697393 0.697393 -0.878464
v -0.697393 -0.697393 -0.878464
v 0.697393 -0.697393 -0.878464
v 0.697393 0.697393 -0.878464
v 0.878464 0.697393 -0.697393
v 0.878464 -0.697393 -0.697393
v 0.878464 -0.697393 0.697393
v 0.878464 0.697393 0.697393
v 0.697393 0.697393 0.878464
v 0.697393 -0.697393 0.878464
v -0.697393 -0.697393 0.878464
v -0.697393 0.697393 0.878464
v 0.697393 -0.878464 -0.697393
v -0.697393 -0.878464 -0.697393
v -0.697393 -0.878464 0.697393
v 0.697393 -0.878464 0.697393
v -0.697393 0.878464 -0.697393
v 0.697393 0.878464 -0.697393
v 0.697393 0.878464 0.697393
v -0.697393 0.878464 0.697393
v -1.000000 -1.000000 0.000000
v -1.000000 0.000000 1.000000
v -1.000000 1.000000 0.000000
v -1.000000 0.000000 -1.000000
v 0.000000 -1.000000 -1.000000
v 0.000000 1.000000 -1.000000
v 1.000000 0.000000 -1.000000
v 1.000000 -1.000000 0.000000
v 1.000000 1.000000 0.000000
v 1.000000 0.000000 1.000000
v 0.000000 -1.000000 1.000000
v 0.000000 1.000000 1.000000
v -1.000000 0.000000 0.697393
v -1.000000 -0.697393 0.000000
v -1.000000 0.697393 0.000000
v -1.000000 0.000000 -0.697393
v -1.000000 -0.848697 0.848697
v -1.000000 0.848697 0.848697
v -1.000000 0.848697 -0.848697
v -1.000000 -0.848697 -0.848697
v -0.697393 0.000000 -1.000000
v 0.000000 -0.697393 -1.000000
v 0.000000 0.697393 -1.000000
v 0.697393 0.000000 -1.000000
v -0.848697 -0.848697 -1.000000
v -0.848697 0.848697 -1.000000
v 0.848697 0.848697 -1.000000
v 0.848697 -0.848697 -1.000000
v 1.000000 0.000000 -0.697393
v 1.000000 -0.697393 0.000000
v 1.000000 0.697393 0.000000
v 1.000000 0.000000 0.697393
v 1.000000 -0.848697 -0.848697
v 1.000000 0.848697 -0.848697
v 1.000000 0.848697 0.848697
v 1.000000 -0.848697 0.848697
v 0.697393 0.000000 1.000000
v 0.000000 -0.697393 1.000000
v 0.000000 0.697393 1.000000
v -0.697393 0.000000 1.000000
v 0.848697 -0.848697 1.000000
v 0.848697 0.848697 1.000000
v -0.848697 0.848697 1.000000
v -0.848697 -0.848697 1.000000
v 0.000000 -1.000000 -0.697393
v -0.697393 -1.000000 0.000000
v 0.697393 -1.000000 0.000000
v 0.000000 -1.000000 0.697393
v -0.848697 -1.000000 -0.848697
v 0.848697 -1.000000 -0.848697
v 0.848697 -1.000000 0.848697
v -0.848697 -1.000000 0.848697
v 0.000000 1.000000 -0.697393
v 0.697393 1.000000 0.000000
v -0.697393 1.000000 0.000000
v 0.000000 1.000000 0.697393
v 0.848697 1.000000 -0.848697
v -0.848697 1.000000 -0.848697
v -0.848697 1.000000 0.848697
v 0.848697 1.000000 0.848697
v -0.878464 0.000000 0.697393
v -0.878464 -0.697393 0.000000
v -0.878464 0.697393 0.000000
v -0.878464 0.000000 -0.697393
v -0.697393 0.000000 -0.878464
v 0.000000 -0.697393 -0.878464
v 0.000000 0.697393 -0.878464
v 0.697393 0.000000 -0.878464
v 0.878464 0.000000 -0.697393
v 0.878464 -0.697393 0.000000
v 0.878464 0.697393 0.000000
v 0.878464 0.000000 0.697393
v 0.697393 0.000000 0.878464
v 0.000000 -0.697393 0.878464
v 0.000000 0.697393 0.878464
v -0.697393 0.000000 0.878464
v 0.000000 -0.878464 -0.697393
v -0.697393 -0.878464 0.000000
v 0.697393 -0.878464 0.000000
v 0.000000 -0.878464 0.697393
v 0.000000 0.878464 -0.697393
v 0.697393 0.878464 0.000000
v -0.697393 0.878464 0.000000
v 0.000000 0.878464 0.697393
v -0.939232 0.697393 0.697393
v -0.939232 -0.697393 0.697393
v -0.697393 0.697393 -0.939232
v -0.697393 -0.697393 -0.939232
v -0.939232 -0.697393 -0.697393
v 0.939232 0.697393 -0.697393
v 0.939232 -0.697393 -0.697393
v 0.697393 -0.697393 -0.939232
v 0.697393 0.697393 0.939232
v 0.697393 -0.697393 0.939232
v -0.939232 0.697393 -0.697393
v 0.939232 -0.697393 0.697393
v 0.697393 -0.939232 -0.697393
v -0.697393 -0.939232 -0.697393
v 0.697393 0.697393 -0.939232
v -0.697393 -0.697393 0.939232
v -0.697393 0.939232 -0.697393
v 0.697393 0.939232 -0.697393
v 0.939232 0.697393 0.697393
v -0.697393 -0.939232 0.697393
v -0.697393 0.697393 0.939232
v 0.697393 0.939232 0.697393
v 0.697393 -0.939232 0.697393
v -0.697393 0.939232 0.697393
v 0.697393 0.000000 0.939232
v -0.000000 -0.697393 -0.939232
v 0.939232 0.000000 -0.697393
v -0.939232 -0.697393 0.000000
v -0.697393 0.000000 -0.939232
v -0.939232 0.000000 0.697393
v -1.000000 0.000000 0.848697
v -1.000000 0.848697 -0.000000
v -1.000000 -0.000000 -0.848697
v -1.000000 -0.848697 0.000000
v -0.848697 0.000000 -1.000000
v 0.000000 0.848697 -1.000000
v 0.848697 0.000000 -1.000000
v -0.000000 -0.848697 -1.000000
v 1.000000 0.000000 -0.848697
v 1.000000 0.848697 0.000000
v 1.000000 -0.000000 0.848697
v 1.000000 -0.848697 -0.000000
v 0.848697 0.000000 1.000000
v -0.000000 0.848697 1.000000
v -0.848697 0.000000 1.000000
v 0.000000 -0.848697 1.000000
v 0.000000 -1.000000 -0.848697
v 0.848697 -1.000000 0.000000
v 0.000000 -1.000000 0.848697
v -0.848697 -1.000000 0.000000
v 0.000000 1.000000 -0.848697
v -0.848697 1.000000 0.000000
v 0.000000 1.000000 0.848697
v 0.848697 1.000000 0.000000
v -0.878464 0.000000 0.000000
v -0.000000 0.000000 -0.878464
v 0.878464 0.000000 -0.000000
v 0.000000 0.000000 0.878464
v 0.000000 -0.878464 -0.000000
v -0.000000 0.878464 -0.000000
v -0.939232 0.697393 -0.000000
v 0.939232 -0.697393 -0.000000
v 0.000000 -0.939232 -0.697393
v 0.000000 0.697393 -0.939232
v 0.000000 -0.697393 0.939232
v -0.000000 0.939232 -0.697393
v -0.939232 -0.000000 -0.697393
v 0.939232 0.697393 0.000000
v -0.697393 -0.939232 -0.000000
v 0.697393 -0.000000 -0.939232
v -0.000000 0.697393 0.939232
v 0.697393 0.939232 -0.000000
v 0.939232 -0.000000 0.697393
v 0.697393 -0.939232 0.000000
v -0.697393 -0.000000 0.939232
v -0.697393 0.939232 0.000000
v -0.000000 -0.939232 0.697393
v 0.000000 0.939232 0.697393
vn -1.0000 -0.0000 -0.0000
vn -0.0000 1.0000 -0.0000
vn -0.0000 -0.0000 1.0000
vn 1.0000 -0.0000 -0.0000
vn -0.0000 -0.0000 -1.0000
vn -0.0000 -1.0000 -0.0000
vt 0.049872 0.186084
vt 0.049872 0.500000
vt 0.077225 0.500000
vt 0.077225 0.186084
vt 0.049872 0.813916
vt 0.077225 0.813916
vt 0.104579 0.813916
vt 0.104579 0.500000
vt 0.104579 0.186084
vt 0.813916 0.950128
vt 0.500000 0.950128
vt 0.500000 0.922775
vt 0.813916 0.922775
vt 0.186084 0.950128
vt 0.186084 0.922775
vt 0.186084 0.895422
vt 0.500000 0.895422
vt 0.813916 0.895422
vt 0.950128 0.186084
vt 0.950128 0.500000
vt 0.922775 0.500000
vt 0.922775 0.186084
vt 0.950128 0.813916
vt 0.922775 0.813916
vt 0.895422 0.813916
vt 0.895422 0.500000
vt 0.895422 0.186084
vt 0.077225 0.500000
vt 0.000000 0.000000
vt 0.000000 0.500000
vt 0.075652 0.500000
vt 0.075652 0.075652
vt 0.000000 1.000000
vt 0.075652 0.924348
vt 0.151303 0.848697
vt 0.151303 0.500000
vt 0.151303 0.151303
vt 0.500000 1.000000
vt 0.500000 0.924348
vt 1.000000 1.000000
vt 0.924348 0.924348
vt 0.848697 0.848697
vt 0.500000 0.848697
vt 1.000000 0.500000
vt 0.924348 0.500000
vt 1.000000 0.000000
vt 0.924348 0.075652
vt 0.848697 0.151303
vt 0.848697 0.500000
vt 0.500000 0.000000
vt 0.500000 0.075652
vt 0.500000 0.151303
vt 0.500000 0.924348
vt 0.500000 0.848697
vt 0.924348 0.500000
vt 0.848697 0.500000
vt 0.500000 0.151303
vt 0.075652 0.500000
vt 0.500000 0.075652
vt 0.924348 0.500000
vt 0.500000 0.924348
vt 0.075652 0.924348
vt 0.500000 0.848697
vt 0.151303 0.848697
vt 0.924348 0.500000
vt 0.924348 0.075652
vt 0.848697 0.151303
vt 0.500000 0.075652
vt 0.500000 0.151303
vt 0.075652 0.500000
vt 0.151303 0.500000
vt 0.848697 0.848697
vt 0.075652 0.500000
vt 0.075652 0.075652
vt 0.151303 0.151303
vt 0.151303 0.500000
vt 0.500000 0.075652
vt 0.848697 0.500000
vt 0.500000 0.500000
vt 0.500000 0.500000
vt 0.500000 0.500000
vt 0.151303 0.500000
vt 0.500000 0.848697
vt 0.848697 0.500000
vt 0.186084 0.049872
vt 0.500000 0.049872
vt 0.500000 0.077225
vt 0.186084 0.077225
vt 0.813916 0.049872
vt 0.813916 0.077225
vt 0.813916 0.104579
vt 0.500000 0.104579
vt 0.186084 0.104579
vt 0.500000 0.922775
vt 0.922775 0.500000
vt 0.500000 0.077225
s 0
usemtl Crate
f 21/1/1 93/2/1 165/3/1 150/4/1
f 93/2/1 22/5/1 149/6/1 165/3/1
f 165/3/1 149/6/1 45/7/1 129/8/1
f 150/4/1 165/3/1 129/8/1 46/9/1
f 16/10/2 78/11/2 166/12/2 148/13/2
f 78/11/2 13/14/2 144/15/2 166/12/2
f 166/12/2 144/15/2 38/16/2 122/17/2
f 148/13/2 166/12/2 122/17/2 39/18/2
f 17/19/3 85/20/3 167/21/3 147/22/3
f 85/20/3 18/23/3 146/24/3 167/21/3
f 167/21/3 146/24/3 41/25/3 125/26/3
f 147/22/3 167/21/3 125/26/3 42/27/3
f 12/5/2 70/2/2 168/28/2 145/6/2
f 70/2/2 9/1/2 142/4/2 168/28/2
f 168/28/2 142/4/2 33/9/2 118/8/2
f 145/6/2 168/28/2 118/8/2 35/7/2
f 13/19/4 77/20/4 169/21/4 144/22/4
f 77/20/4 14/23/4 143/24/4 169/21/4
f 169/21/4 143/24/4 37/25/4 121/26/4
f 144/22/4 169/21/4 121/26/4 38/27/4
f 9/1/5 69/2/5 170/3/5 142/4/5
f 69/2/5 10/5/5 141/6/5 170/3/5
f 170/3/5 141/6/5 34/7/5 117/8/5
f 142/4/5 170/3/5 117/8/5 33/9/5
f 1/29/1 58/30/1 171/31/1 73/32/1
f 58/30/1 2/33/1 74/34/1 171/31/1
f 171/31/1 74/34/1 10/35/1 69/36/1
f 73/32/1 171/31/1 69/36/1 9/37/1
f 2/33/1 59/38/1 172/39/1 74/34/1
f 59/38/1 4/40/1 75/41/1 172/39/1
f 172/39/1 75/41/1 11/42/1 71/43/1
f 74/34/1 172/39/1 71/43/1 10/35/1
f 4/40/1 60/44/1 173/45/1 75/41/1
f 60/44/1 3/46/1 76/47/1 173/45/1
f 173/45/1 76/47/1 12/48/1 72/49/1
f 75/41/1 173/45/1 72/49/1 11/42/1
f 3/46/1 57/50/1 174/51/1 76/47/1
f 57/50/1 1/29/1 73/32/1 174/51/1
f 174/51/1 73/32/1 9/37/1 70/52/1
f 76/47/1 174/51/1 70/52/1 12/48/1
f 3/29/5 60/30/5 175/31/5 81/32/5
f 60/30/5 4/33/5 82/34/5 175/31/5
f 175/31/5 82/34/5 14/35/5 77/36/5
f 81/32/5 175/31/5 77/36/5 13/37/5
f 4/33/5 62/38/5 176/53/5 82/34/5
f 62/38/5 8/40/5 83/41/5 176/53/5
f 176/53/5 83/41/5 15/42/5 79/54/5
f 82/34/5 176/53/5 79/54/5 14/35/5
f 8/40/5 63/44/5 177/55/5 83/41/5
f 63/44/5 7/46/5 84/47/5 177/55/5
f 177/55/5 84/47/5 16/48/5 80/56/5
f 83/41/5 177/55/5 80/56/5 15/42/5
f 7/46/5 61/50/5 178/51/5 84/47/5
f 61/50/5 3/29/5 81/32/5 178/51/5
f 178/51/5 81/32/5 13/37/5 78/57/5
f 84/47/5 178/51/5 78/57/5 16/48/5
f 7/46/4 63/44/4 179/55/4 89/47/4
f 63/44/4 8/40/4 90/41/4 179/55/4
f 179/55/4 90/41/4 18/42/4 85/56/4
f 89/47/4 179/55/4 85/56/4 17/48/4
f 8/40/4 65/38/4 180/53/4 90/41/4
f 65/38/4 6/33/4 91/34/4 180/53/4
f 180/53/4 91/34/4 19/35/4 87/54/4
f 90/41/4 180/53/4 87/54/4 18/42/4
f 6/33/4 66/30/4 181/58/4 91/34/4
f 66/30/4 5/29/4 92/32/4 181/58/4
f 181/58/4 92/32/4 20/37/4 88/36/4
f 91/34/4 181/58/4 88/36/4 19/35/4
f 5/29/4 64/50/4 182/59/4 92/32/4
f 64/50/4 7/46/4 89/47/4 182/59/4
f 182/59/4 89/47/4 17/48/4 86/57/4
f 92/32/4 182/59/4 86/57/4 20/37/4
f 5/46/3 66/44/3 183/60/3 97/47/3
f 66/44/3 6/40/3 98/41/3 183/60/3
f 183/60/3 98/41/3 22/42/3 93/49/3
f 97/47/3 183/60/3 93/49/3 21/48/3
f 6/40/3 68/38/3 184/61/3 98/41/3
f 68/38/3 2/33/3 99/34/3 184/61/3
f 184/61/3 99/34/3 23/35/3 95/43/3
f 98/41/3 184/61/3 95/43/3 22/42/3
f 2/33/3 58/30/3 185/31/3 99/34/3
f 58/30/3 1/29/3 100/32/3 185/31/3
f 185/31/3 100/32/3 24/37/3 96/36/3
f 99/34/3 185/31/3 96/36/3 23/35/3
f 1/29/3 67/50/3 186/51/3 100/32/3
f 67/50/3 5/46/3 97/47/3 186/51/3
f 186/51/3 97/47/3 21/48/3 94/52/3
f 100/32/3 186/51/3 94/52/3 24/37/3
f 3/33/6 61/38/6 187/39/6 105/62/6
f 61/38/6 7/40/6 106/41/6 187/39/6
f 187/39/6 106/41/6 26/42/6 101/63/6
f 105/62/6 187/39/6 101/63/6 25/64/6
f 7/40/6 64/44/6 188/65/6 106/41/6
f 64/44/6 5/46/6 107/66/6 188/65/6
f 188/65/6 107/66/6 27/67/6 103/56/6
f 106/41/6 188/65/6 103/56/6 26/42/6
f 5/46/6 67/50/6 189/68/6 107/66/6
f 67/50/6 1/29/6 108/32/6 189/68/6
f 189/68/6 108/32/6 28/37/6 104/69/6
f 107/66/6 189/68/6 104/69/6 27/67/6
f 1/29/6 57/30/6 190/70/6 108/32/6
f 57/30/6 3/33/6 105/62/6 190/70/6
f 190/70/6 105/62/6 25/64/6 102/71/6
f 108/32/6 190/70/6 102/71/6 28/37/6
f 8/40/2 62/38/2 191/53/2 113/41/2
f 62/38/2 4/33/2 114/34/2 191/53/2
f 191/53/2 114/34/2 30/35/2 109/43/2
f 113/41/2 191/53/2 109/43/2 29/72/2
f 4/33/2 59/30/2 192/73/2 114/34/2
f 59/30/2 2/29/2 115/74/2 192/73/2
f 192/73/2 115/74/2 31/75/2 111/76/2
f 114/34/2 192/73/2 111/76/2 30/35/2
f 2/29/2 68/50/2 193/77/2 115/74/2
f 68/50/2 6/46/2 116/47/2 193/77/2
f 193/77/2 116/47/2 32/48/2 112/57/2
f 115/74/2 193/77/2 112/57/2 31/75/2
f 6/46/2 65/44/2 194/55/2 116/47/2
f 65/44/2 8/40/2 113/41/2 194/55/2
f 194/55/2 113/41/2 29/72/2 110/78/2
f 116/47/2 194/55/2 110/78/2 32/48/2
f 33/37/1 117/36/1 195/79/1 118/57/1
f 117/36/1 34/35/1 119/43/1 195/79/1
f 195/79/1 119/43/1 36/42/1 120/49/1
f 118/57/1 195/79/1 120/49/1 35/48/1
f 38/37/5 121/36/5 196/79/5 122/57/5
f 121/36/5 37/35/5 123/43/5 196/79/5
f 196/79/5 123/43/5 40/42/5 124/49/5
f 122/57/5 196/79/5 124/49/5 39/48/5
f 42/48/4 125/49/4 197/80/4 126/57/4
f 125/49/4 41/42/4 127/43/4 197/80/4
f 197/80/4 127/43/4 44/35/4 128/36/4
f 126/57/4 197/80/4 128/36/4 43/37/4
f 46/48/3 129/49/3 198/80/3 130/57/3
f 129/49/3 45/42/3 131/43/3 198/80/3
f 198/80/3 131/43/3 48/35/3 132/36/3
f 130/57/3 198/80/3 132/36/3 47/37/3
f 50/64/6 133/63/6 199/81/6 134/82/6
f 133/63/6 49/42/6 135/56/6 199/81/6
f 199/81/6 135/56/6 52/67/6 136/69/6
f 134/82/6 199/81/6 136/69/6 51/37/6
f 54/72/2 137/83/2 200/81/2 138/84/2
f 137/83/2 53/35/2 139/76/2 200/81/2
f 200/81/2 139/76/2 56/75/2 140/57/2
f 138/84/2 200/81/2 140/57/2 55/48/2
f 10/1/6 71/2/6 201/3/6 141/4/6
f 71/2/6 11/5/6 151/6/6 201/3/6
f 201/3/6 151/6/6 36/7/6 119/8/6
f 141/4/6 201/3/6 119/8/6 34/9/6
f 20/19/2 86/20/2 202/21/2 152/22/2
f 86/20/2 17/23/2 147/24/2 202/21/2
f 202/21/2 147/24/2 42/25/2 126/26/2
f 152/22/2 202/21/2 126/26/2 43/27/2
f 25/85/3 101/86/3 203/87/3 154/88/3
f 101/86/3 26/89/3 153/90/3 203/87/3
f 203/87/3 153/90/3 49/91/3 133/92/3
f 154/88/3 203/87/3 133/92/3 50/93/3
f 14/14/6 79/11/6 204/94/6 143/15/6
f 79/11/6 15/10/6 155/13/6 204/94/6
f 204/94/6 155/13/6 40/18/6 123/17/6
f 143/15/6 204/94/6 123/17/6 37/16/6
f 24/85/2 94/86/2 205/87/2 156/88/2
f 94/86/2 21/89/2 150/90/2 205/87/2
f 205/87/2 150/90/2 46/91/2 130/92/2
f 156/88/2 205/87/2 130/92/2 47/93/2
f 29/10/3 109/11/3 206/12/3 158/13/3
f 109/11/3 30/14/3 157/15/3 206/12/3
f 206/12/3 157/15/3 53/16/3 137/17/3
f 158/13/3 206/12/3 137/17/3 54/18/3
f 11/5/3 72/2/3 207/28/3 151/6/3
f 72/2/3 12/1/3 145/4/3 207/28/3
f 207/28/3 145/4/3 35/9/3 120/8/3
f 151/6/3 207/28/3 120/8/3 36/7/3
f 18/23/6 87/20/6 208/95/6 146/24/6
f 87/20/6 19/19/6 159/22/6 208/95/6
f 208/95/6 159/22/6 44/27/6 127/26/6
f 146/24/6 208/95/6 127/26/6 41/25/6
f 28/85/4 102/86/4 209/87/4 160/88/4
f 102/86/4 25/89/4 154/90/4 209/87/4
f 209/87/4 154/90/4 50/91/4 134/92/4
f 160/88/4 209/87/4 134/92/4 51/93/4
f 15/23/1 80/20/1 210/95/1 155/24/1
f 80/20/1 16/19/1 148/22/1 210/95/1
f 210/95/1 148/22/1 39/27/1 124/26/1
f 155/24/1 210/95/1 124/26/1 40/25/1
f 22/89/6 95/86/6 211/96/6 149/90/6
f 95/86/6 23/85/6 161/88/6 211/96/6
f 211/96/6 161/88/6 48/93/6 131/92/6
f 149/90/6 211/96/6 131/92/6 45/91/6
f 32/14/1 110/11/1 212/94/1 162/15/1
f 110/11/1 29/10/1 158/13/1 212/94/1
f 212/94/1 158/13/1 54/18/1 138/17/1
f 162/15/1 212/94/1 138/17/1 55/16/1
f 19/23/5 88/20/5 213/95/5 159/24/5
f 88/20/5 20/19/5 152/22/5 213/95/5
f 213/95/5 152/22/5 43/27/5 128/26/5
f 159/24/5 213/95/5 128/26/5 44/25/5
f 26/89/1 103/86/1 214/96/1 153/90/1
f 103/86/1 27/85/1 163/88/1 214/96/1
f 214/96/1 163/88/1 52/93/1 135/92/1
f 153/90/1 214/96/1 135/92/1 49/91/1
f 23/5/4 96/2/4 215/28/4 161/6/4
f 96/2/4 24/1/4 156/4/4 215/28/4
f 215/28/4 156/4/4 47/9/4 132/8/4
f 161/6/4 215/28/4 132/8/4 48/7/4
f 30/10/4 111/11/4 216/12/4 157/13/4
f 111/11/4 31/14/4 164/15/4 216/12/4
f 216/12/4 164/15/4 56/16/4 139/17/4
f 157/13/4 216/12/4 139/17/4 53/18/4
f 27/89/5 104/86/5 217/96/5 163/90/5
f 104/86/5 28/85/5 160/88/5 217/96/5
f 217/96/5 160/88/5 51/93/5 136/92/5
f 163/90/5 217/96/5 136/92/5 52/91/5
f 31/14/5 112/11/5 218/94/5 164/15/5
f 112/11/5 32/10/5 162/13/5 218/94/5
f 218/94/5 162/13/5 55/18/5 140/17/5
f 164/15/5 218/94/5 140/17/5 56/16/5
